<?xml version="1.0" encoding="utf-8"?>
<!-- Generator: Adobe Illustrator 18.1.0, SVG Export Plug-In . SVG Version: 6.00 Build 0)  -->
<svg version="1.1" id="Layer_1" xmlns="http://www.w3.org/2000/svg" xmlns:xlink="http://www.w3.org/1999/xlink" x="0px" y="0px"
	 viewBox="0.1 199.5 801.1 256.3" enable-background="new 0.1 199.5 801.1 256.3" xml:space="preserve">
<g>
	<defs>
		<circle id="SVGID_1_" cx="131.7" cy="322.5" r="112"/>
	</defs>
	<clipPath id="SVGID_2_">
		<use xlink:href="#SVGID_1_"  overflow="visible"/>
	</clipPath>
	<rect x="8.7" y="199.5" clip-path="url(#SVGID_2_)" fill="#FFFFFF" width="245.8" height="245.8"/>
</g>
<g>
	<defs>
		<path id="SVGID_3_" d="M130.1,429.9c-57.1,0-103.4-46.3-103.4-103.4S73,223,130.1,223s103.4,46.3,103.4,103.4
			C233.5,383.6,187.2,429.9,130.1,429.9z M130.1,209.2c-64.6,0-117,52.4-117,117s52.4,117,117,117s117-52.4,117-117
			c0-31-12.3-60.8-34.3-82.7C190.9,221.6,161.1,209.2,130.1,209.2z"/>
	</defs>
	<clipPath id="SVGID_4_">
		<use xlink:href="#SVGID_3_"  overflow="visible"/>
	</clipPath>
	<rect x="2.2" y="198.4" clip-path="url(#SVGID_4_)" fill="#2A94E5" width="255.8" height="255.8"/>
</g>
<g>
	<g>
		<defs>
			<path id="SVGID_5_" d="M192.2,282.2c-8.3-8.2-21.6-8.2-29.9,0l-47.2,47.2l-17-17c-8.3-8.3-21.7-8.3-30,0c-8.3,8.3-8.3,21.7,0,30
				l31.9,31.9c8.3,8.2,21.6,8.2,29.9,0l62.1-62.1c4-3.9,6.3-9.3,6.3-14.9C198.4,291.6,196.2,286.2,192.2,282.2z"/>
		</defs>
		<clipPath id="SVGID_6_">
			<use xlink:href="#SVGID_5_"  overflow="visible"/>
		</clipPath>
		<rect x="51" y="265.2" clip-path="url(#SVGID_6_)" fill="#7FBFEF" width="158.2" height="126"/>
	</g>
	<g>
		<defs>
			<path id="SVGID_7_" d="M115.1,329.4L115.1,329.4l-29.7,29.9l14.9,14.9c7.6,7.6,19.8,8.3,28.2,1.5c0.6-0.4,1.1-0.9,1.5-1.5
				l14.9-14.9L115.1,329.4z"/>
		</defs>
		<clipPath id="SVGID_8_">
			<use xlink:href="#SVGID_7_"  overflow="visible"/>
		</clipPath>
		<rect x="74.5" y="318.5" clip-path="url(#SVGID_8_)" fill="#2A94E5" width="81.2" height="72.8"/>
	</g>
	<g>
		<defs>
			<polygon id="SVGID_9_" points="115.1,329.4 115.1,329.4 145,359.3 147.6,356.8 122.8,321.9 			"/>
		</defs>
		<clipPath id="SVGID_10_">
			<use xlink:href="#SVGID_9_"  overflow="visible"/>
		</clipPath>
		<rect x="104.2" y="311" clip-path="url(#SVGID_10_)" fill="#5FAFEB" width="54.3" height="59.3"/>
	</g>
</g>
<g>
	<defs>
		<path id="SVGID_11_" d="M309.8,386h-17.4v-77.6h17.5L309.8,386z M291.3,288.4c-0.1-2.5,0.9-4.9,2.6-6.7c4.3-3.4,10.4-3.4,14.7,0
			c1.7,1.8,2.7,4.2,2.6,6.7c0,2.5-0.9,4.9-2.6,6.7c-4.3,3.4-10.4,3.4-14.7,0C292.1,293.3,291.2,290.9,291.3,288.4z"/>
	</defs>
	<use xlink:href="#SVGID_11_"  overflow="visible" fill="#FFFFFF"/>
	<clipPath id="SVGID_12_">
		<use xlink:href="#SVGID_11_"  overflow="visible"/>
	</clipPath>
	<rect x="280.4" y="268.3" clip-path="url(#SVGID_12_)" fill="#FFFFFF" width="41.6" height="128.6"/>
</g>
<g>
	<defs>
		<path id="SVGID_13_" d="M352.4,347h30.2l-15.1-43.3L352.4,347z M387.6,361.7h-40.3l-8.4,24.3h-18.7L359.6,282h16.2L415.1,386h-19
			L387.6,361.7z"/>
	</defs>
	<use xlink:href="#SVGID_13_"  overflow="visible" fill="#FFFFFF"/>
	<clipPath id="SVGID_14_">
		<use xlink:href="#SVGID_13_"  overflow="visible"/>
	</clipPath>
	<rect x="309.2" y="271.1" clip-path="url(#SVGID_14_)" fill="#FFFFFF" width="116.8" height="125.8"/>
</g>
<g>
	<defs>
		<path id="SVGID_15_" d="M470.3,378.3c-5.2,6-12.3,9-21.8,9c-8.4,0-14.7-2.4-19-7.3s-6.5-12.1-6.5-21.3v-50.2h17.5v50
			c0,9.9,4.1,14.7,12.3,14.7c8.4,0,14.2-3,17-9v-55.6h17.5v77.4h-16.4L470.3,378.3z"/>
	</defs>
	<use xlink:href="#SVGID_15_"  overflow="visible" fill="#FFFFFF"/>
	<clipPath id="SVGID_16_">
		<use xlink:href="#SVGID_15_"  overflow="visible"/>
	</clipPath>
	<rect x="412.2" y="297.6" clip-path="url(#SVGID_16_)" fill="#FFFFFF" width="86" height="100.6"/>
</g>
<g>
	<defs>
		<path id="SVGID_17_" d="M517.9,348.1c0,8,1.5,14,4.5,18.3c2.9,4.3,7.8,6.8,12.9,6.7c6.6,0.3,12.7-3.5,15.5-9.5v-33
			c-2.8-6-8.9-9.6-15.5-9.3c-5.2-0.2-10.1,2.3-12.9,6.7C519.4,332.6,517.9,339.3,517.9,348.1z M500.5,346.6
			c0-11.8,2.8-21.5,8.4-28.7c5.2-7.1,13.5-11.1,22.2-10.8c7.6-0.3,14.9,2.9,19.8,8.6v-39.6h17.5V386h-15.7l-0.9-8
			c-5.1,6.3-12.8,9.8-20.9,9.5c-8.7,0.2-16.9-3.9-22-11C503.3,369.2,500.5,359.3,500.5,346.6z"/>
	</defs>
	<use xlink:href="#SVGID_17_"  overflow="visible" fill="#FFFFFF"/>
	<clipPath id="SVGID_18_">
		<use xlink:href="#SVGID_17_"  overflow="visible"/>
	</clipPath>
	<rect x="489.6" y="265.3" clip-path="url(#SVGID_18_)" fill="#FFFFFF" width="89.6" height="133.2"/>
</g>
<g>
	<defs>
		<path id="SVGID_19_" d="M603.9,386h-17.4v-77.6h17.5L603.9,386z M585.6,288.4c-0.1-2.5,0.9-4.9,2.6-6.7c4.3-3.4,10.4-3.4,14.7,0
			c1.7,1.8,2.7,4.2,2.6,6.7c0,2.5-0.9,4.9-2.6,6.7c-4.3,3.4-10.4,3.4-14.7,0C586.4,293.3,585.4,290.9,585.6,288.4z"/>
	</defs>
	<use xlink:href="#SVGID_19_"  overflow="visible" fill="#FFFFFF"/>
	<clipPath id="SVGID_20_">
		<use xlink:href="#SVGID_19_"  overflow="visible"/>
	</clipPath>
	<rect x="574.7" y="268.3" clip-path="url(#SVGID_20_)" fill="#FFFFFF" width="41.6" height="128.6"/>
</g>
<g>
	<defs>
		<path id="SVGID_21_" d="M643.5,289.7v18.7h13.6v12.9h-13.6v43.3c-0.2,2.3,0.4,4.6,1.7,6.5c1.7,1.5,4,2.2,6.2,1.9
			c2,0,4.1-0.2,6-0.7v13.4c-3.7,1.1-7.6,1.7-11.4,1.7c-13.4,0-20-7.3-20-22.2v-44h-12.7v-12.9h12.7v-18.7H643.5z"/>
	</defs>
	<use xlink:href="#SVGID_21_"  overflow="visible" fill="#FFFFFF"/>
	<clipPath id="SVGID_22_">
		<use xlink:href="#SVGID_21_"  overflow="visible"/>
	</clipPath>
	<rect x="602.5" y="278.8" clip-path="url(#SVGID_22_)" fill="#FFFFFF" width="65.9" height="119.6"/>
</g>
<g>
	<defs>
		<path id="SVGID_23_" d="M681.5,348.1c0,8,1.7,14.2,5,18.7c3.2,4.4,8.4,6.9,13.8,6.7c5.5,0.1,10.6-2.5,13.8-6.9
			c3.2-4.5,5-11.2,5-20c0.3-6.5-1.4-13-5-18.5c-3.2-4.3-8.3-6.8-13.6-6.9c-5.4,0-10.5,2.4-13.7,6.7
			C683.2,332.4,681.5,339.1,681.5,348.1z M664.2,346.6c-0.1-7.1,1.4-14.1,4.5-20.5c2.8-5.8,7.2-10.7,12.7-14
			c5.7-3.3,12.2-5.1,18.7-5c9.5-0.3,18.7,3.3,25.4,10.1c6.7,7.3,10.5,16.8,10.6,26.7v4.1c0.1,7.1-1.4,14-4.3,20.5
			c-2.7,5.8-7.1,10.7-12.5,14c-5.8,3.3-12.3,5.1-19,5c-10,0.4-19.6-3.6-26.3-11c-6.5-7.3-9.9-17-9.9-29.1L664.2,346.6z"/>
	</defs>
	<use xlink:href="#SVGID_23_"  overflow="visible" fill="#FFFFFF"/>
	<clipPath id="SVGID_24_">
		<use xlink:href="#SVGID_23_"  overflow="visible"/>
	</clipPath>
	<rect x="653.3" y="296.3" clip-path="url(#SVGID_24_)" fill="#FFFFFF" width="93.7" height="102.2"/>
</g>
<g>
	<defs>
		<path id="SVGID_25_" d="M790.3,324.4c-2.3-0.4-4.7-0.6-7.1-0.7c-8,0-13.4,3-16.2,9v53h-17.5v-77.4h16.6l0.4,8.6
			c3.5-6.4,10.2-10.3,17.5-10.1c2.1,0,4.3,0.3,6.2,1.1L790.3,324.4z"/>
	</defs>
	<use xlink:href="#SVGID_25_"  overflow="visible" fill="#FFFFFF"/>
	<clipPath id="SVGID_26_">
		<use xlink:href="#SVGID_25_"  overflow="visible"/>
	</clipPath>
	<rect x="738.7" y="296.1" clip-path="url(#SVGID_26_)" fill="#FFFFFF" width="62.5" height="100.6"/>
</g>
</svg>
